# xmcd
#
# Track frame offsets:
#	150
#	20222
#	32455
#	44524
#	59014
#	69066
#	84022
#	104828
#	115962
#	127265
#
# Disc length: 1927 seconds
#
# Revision: 1
# Processed by: cddbd v1.5.2PL0 Copyright (c) Steve Scherf et al.
# Submitted via: audiograbber 1.83.01
#
DISCID=8b07850a
DTITLE=Dan Tyler - The Beech House Sessions, 11.14.06
DYEAR=2006
DGENRE=Country
TTITLE0=How 'bout You?
TTITLE1=I'll Be Doing Just Fine
TTITLE2=Love and Grapes
TTITLE3=I Hate to Love You
TTITLE4=Foolish Heart
TTITLE5=Morning Sun
TTITLE6=Pursuit of Happiness
TTITLE7=Help Yourself
TTITLE8=Making Memories
TTITLE9=Halfway There
EXTD=
EXTT0=
EXTT1=
EXTT2=
EXTT3=
EXTT4=
EXTT5=
EXTT6=
EXTT7=
EXTT8=
EXTT9=
PLAYORDER=
